<svg xmlns="http://www.w3.org/2000/svg" width="900" height="1100" viewBox="0 0 900 1100" fill="none">
<defs>
  <linearGradient id="bg" x1="0" y1="0" x2="1" y2="1">
    <stop offset="0%" stop-color="#0a0a12"/>
    <stop offset="100%" stop-color="#111827"/>
  </linearGradient>
  <linearGradient id="glow" x1="0" y1="0" x2="1" y2="1">
    <stop offset="0%" stop-color="#00d4ff"/>
    <stop offset="100%" stop-color="#6ee7ff"/>
  </linearGradient>
  <filter id="shadow" x="-50%" y="-50%" width="200%" height="200%">
    <feGaussianBlur stdDeviation="20" result="blur"/>
    <feMerge><feMergeNode in="blur"/><feMergeNode in="SourceGraphic"/></feMerge>
  </filter>
</defs>
<rect width="900" height="1100" rx="42" fill="url(#bg)"/>
<circle cx="450" cy="340" r="150" fill="#0f172a" stroke="url(#glow)" stroke-width="8" filter="url(#shadow)"/>
<path d="M450 220c-50 0-92 41-92 92 0 51 42 92 92 92s92-41 92-92c0-51-42-92-92-92Zm0 230c-90 0-163 73-163 163v25h326v-25c0-90-73-163-163-163Z" fill="#e5faff" opacity="0.9"/>
<image href="assets/logo-cloud-edge.svg" x="360" y="130" width="180" height="180"/>
<text x="450" y="775" text-anchor="middle" fill="#ffffff" font-family="Arial, Helvetica, sans-serif" font-size="66" font-weight="700">Mfoniso Ubong</text>
<text x="450" y="840" text-anchor="middle" fill="#7dd3fc" font-family="Arial, Helvetica, sans-serif" font-size="34" letter-spacing="3">TECH ADVOCATE • GRAPHIC DESIGNER</text>
<rect x="185" y="905" width="530" height="82" rx="41" fill="#08121b" stroke="#00d4ff" stroke-width="3"/>
<text x="450" y="957" text-anchor="middle" fill="#dff8ff" font-family="Arial, Helvetica, sans-serif" font-size="28">Portrait slot prepared for your uploaded photo</text>
</svg>